<?xml version="1.0" encoding="UTF-8" standalone="no"?>
<!DOCTYPE svg PUBLIC "-//W3C//DTD SVG 1.1//EN" "http://www.w3.org/Graphics/SVG/1.1/DTD/svg11.dtd">
<svg xmlns="http://www.w3.org/2000/svg" version="1.1" viewBox="0.00 0.00 613.00 612.00">
<g stroke-width="2.00" fill="none" stroke-linecap="butt">
<path stroke="#7e807f" vector-effect="non-scaling-stroke" d="
  M 132.62 242.57
  Q 132.96 278.23 146.66 310.43
  Q 176.34 380.18 247.54 408.79
  Q 278.25 421.12 313.33 420.79
  Q 348.41 420.46 378.88 407.55
  Q 449.53 377.60 477.89 307.30
  Q 490.98 274.86 490.64 239.19
  Q 490.31 203.53 476.61 171.34
  Q 446.92 101.58 375.72 72.98
  Q 345.02 60.64 309.94 60.97
  Q 274.86 61.30 244.39 74.21
  Q 173.74 104.16 145.38 174.46
  Q 132.29 206.91 132.62 242.57"
/>
<path stroke="#7e807f" vector-effect="non-scaling-stroke" d="
  M 279.68 481.96
  C 279.67 492.05 287.37 498.84 296.59 501.12
  Q 312.37 505.03 328.02 499.04
  Q 328.35 498.92 328.35 498.57
  L 328.35 493.69
  Q 328.35 493.39 328.08 493.53
  Q 321.36 496.92 309.83 497.44
  C 300.19 497.87 286.38 494.14 286.39 481.97
  C 286.39 469.79 300.21 466.08 309.85 466.53
  Q 321.38 467.06 328.09 470.46
  Q 328.36 470.60 328.36 470.30
  L 328.37 465.42
  Q 328.37 465.07 328.04 464.95
  Q 312.40 458.94 296.61 462.82
  C 287.39 465.10 279.68 471.87 279.68 481.96"
/>
<path stroke="#7e807f" vector-effect="non-scaling-stroke" d="
  M 401.57 481.97
  C 401.57 492.06 409.26 498.84 418.48 501.13
  Q 434.26 505.03 449.91 499.04
  Q 450.24 498.92 450.24 498.57
  L 450.24 493.69
  Q 450.24 493.39 449.97 493.53
  Q 443.25 496.92 431.72 497.44
  C 422.08 497.87 408.27 494.15 408.28 481.97
  C 408.29 469.80 422.10 466.08 431.74 466.53
  Q 443.27 467.06 449.98 470.46
  Q 450.25 470.60 450.25 470.30
  L 450.26 465.42
  Q 450.26 465.07 449.93 464.95
  Q 434.29 458.94 418.50 462.83
  C 409.28 465.10 401.58 471.88 401.57 481.97"
/>
<path stroke="#7e807f" vector-effect="non-scaling-stroke" d="
  M 53.93 501.92
  A 0.40 0.40 0.0 0 0 54.33 501.52
  L 54.33 485.47
  A 0.40 0.40 0.0 0 1 54.73 485.07
  L 81.73 485.07
  A 0.40 0.40 0.0 0 0 82.13 484.67
  L 82.13 480.21
  A 0.40 0.40 0.0 0 0 81.73 479.81
  L 54.72 479.81
  A 0.40 0.40 0.0 0 1 54.32 479.41
  L 54.32 467.71
  A 0.40 0.40 0.0 0 1 54.72 467.31
  L 87.80 467.31
  A 0.40 0.40 0.0 0 0 88.20 466.91
  L 88.20 462.40
  A 0.40 0.40 0.0 0 0 87.80 462.00
  L 48.40 462.00
  A 0.40 0.40 0.0 0 0 48.00 462.40
  L 48.00 501.52
  A 0.40 0.40 0.0 0 0 48.40 501.92
  L 53.93 501.92"
/>
<path stroke="#7e807f" vector-effect="non-scaling-stroke" d="
  M 112.57 496.01
  L 112.57 484.31
  Q 112.57 483.88 113.00 483.88
  L 140.37 483.87
  Q 140.70 483.87 140.70 483.49
  L 140.72 478.96
  Q 140.72 478.56 140.27 478.56
  L 113.08 478.57
  Q 112.57 478.57 112.57 478.07
  L 112.57 467.66
  Q 112.57 467.17 113.08 467.17
  L 146.08 467.18
  Q 146.41 467.18 146.41 466.85
  L 146.41 462.35
  Q 146.41 461.99 146.06 461.99
  L 106.72 461.99
  Q 106.19 461.99 106.19 462.52
  L 106.19 501.45
  Q 106.19 501.94 106.69 501.94
  L 146.21 501.94
  Q 146.42 501.94 146.42 501.72
  L 146.43 496.89
  Q 146.43 496.63 146.17 496.63
  L 113.22 496.64
  Q 112.57 496.64 112.57 496.01"
/>
<path stroke="#7e807f" vector-effect="non-scaling-stroke" d="
  M 206.64 496.98
  A 0.35 0.35 0.0 0 0 206.29 496.63
  L 173.16 496.63
  A 0.35 0.35 0.0 0 1 172.81 496.28
  L 172.81 484.23
  A 0.35 0.35 0.0 0 1 173.16 483.88
  L 200.58 483.88
  A 0.35 0.35 0.0 0 0 200.93 483.53
  L 200.93 478.92
  A 0.35 0.35 0.0 0 0 200.58 478.57
  L 173.16 478.57
  A 0.35 0.35 0.0 0 1 172.81 478.22
  L 172.81 467.54
  A 0.35 0.35 0.0 0 1 173.16 467.19
  L 206.28 467.19
  A 0.35 0.35 0.0 0 0 206.63 466.84
  L 206.63 462.35
  A 0.35 0.35 0.0 0 0 206.28 462.00
  L 166.78 462.00
  A 0.35 0.35 0.0 0 0 166.43 462.35
  L 166.43 501.58
  A 0.35 0.35 0.0 0 0 166.78 501.93
  L 206.29 501.93
  A 0.35 0.35 0.0 0 0 206.64 501.58
  L 206.64 496.98"
/>
<path stroke="#7e807f" vector-effect="non-scaling-stroke" d="
  M 264.86 496.98
  A 0.35 0.35 0.0 0 0 264.51 496.63
  L 233.98 496.63
  A 0.35 0.35 0.0 0 1 233.63 496.28
  L 233.63 462.37
  A 0.35 0.35 0.0 0 0 233.28 462.02
  L 227.67 462.02
  A 0.35 0.35 0.0 0 0 227.32 462.37
  L 227.32 501.58
  A 0.35 0.35 0.0 0 0 227.67 501.93
  L 264.51 501.93
  A 0.35 0.35 0.0 0 0 264.86 501.58
  L 264.86 496.98"
/>
<path stroke="#7e807f" vector-effect="non-scaling-stroke" d="
  M 366.55 501.94
  Q 368.68 501.94 369.22 501.89
  Q 369.69 501.85 369.69 501.38
  L 369.69 487.21
  Q 369.69 486.69 370.03 486.31
  L 391.78 462.18
  A 0.09 0.08 -69.1 0 0 391.72 462.04
  L 384.06 462.04
  Q 383.80 462.04 383.63 462.24
  Q 374.76 472.35 366.82 481.29
  Q 366.77 481.35 366.71 481.37
  Q 366.64 481.39 366.57 481.39
  Q 366.50 481.39 366.43 481.37
  Q 366.37 481.35 366.32 481.29
  Q 358.40 472.34 349.54 462.21
  Q 349.37 462.01 349.11 462.01
  L 341.45 462.00
  A 0.09 0.08 69.2 0 0 341.39 462.14
  L 363.10 486.30
  Q 363.44 486.68 363.44 487.20
  L 363.41 501.37
  Q 363.41 501.84 363.88 501.89
  Q 364.42 501.94 366.55 501.94"
/>
<path stroke="#7e807f" vector-effect="non-scaling-stroke" d="
  M 477.12 496.25
  L 477.13 462.33
  Q 477.13 462.00 476.80 462.00
  L 471.02 462.00
  Q 470.82 462.00 470.82 462.20
  L 470.82 501.70
  A 0.23 0.23 0.0 0 0 471.05 501.93
  L 508.05 501.94
  A 0.33 0.33 0.0 0 0 508.38 501.61
  L 508.38 497.00
  Q 508.38 496.63 508.01 496.63
  L 477.50 496.63
  A 0.38 0.38 0.0 0 1 477.12 496.25"
/>
<path stroke="#7e807f" vector-effect="non-scaling-stroke" d="
  M 531.17 495.99
  L 531.18 484.31
  Q 531.18 483.88 531.61 483.88
  L 558.95 483.87
  Q 559.28 483.87 559.28 483.49
  L 559.30 478.97
  Q 559.30 478.57 558.85 478.57
  L 531.69 478.57
  Q 531.18 478.57 531.18 478.07
  L 531.18 467.67
  Q 531.18 467.18 531.69 467.18
  L 564.66 467.20
  Q 564.99 467.20 564.99 466.87
  L 564.99 462.38
  Q 564.99 462.02 564.64 462.02
  L 525.34 462.00
  Q 524.81 462.00 524.81 462.53
  L 524.80 501.43
  Q 524.80 501.92 525.30 501.92
  L 564.78 501.93
  Q 564.99 501.93 564.99 501.71
  L 565.00 496.89
  Q 565.00 496.63 564.74 496.63
  L 531.82 496.62
  Q 531.17 496.62 531.17 495.99"
/>
<path stroke="#7e807f" vector-effect="non-scaling-stroke" d="
  M 236.17 546.00
  C 237.21 542.74 241.28 541.28 244.51 540.78
  Q 256.03 539.01 268.46 542.58
  Q 268.55 542.61 268.55 542.51
  L 268.55 538.69
  Q 268.55 538.41 268.28 538.35
  Q 257.38 536.20 249.00 536.57
  C 242.39 536.87 229.34 538.24 229.94 547.55
  C 230.36 554.09 237.52 556.52 242.94 557.83
  C 249.98 559.53 257.06 560.25 262.17 563.47
  C 264.55 564.98 266.21 568.12 264.03 570.60
  C 261.26 573.76 256.11 574.53 251.76 574.73
  Q 240.95 575.22 230.25 572.06
  A 0.18 0.18 0.0 0 0 230.02 572.23
  L 230.02 576.02
  Q 230.02 576.29 230.29 576.36
  Q 241.03 578.84 252.27 578.40
  C 257.82 578.19 264.61 577.27 269.09 573.84
  C 272.71 571.07 273.40 565.83 270.02 562.55
  C 265.50 558.14 255.55 556.37 248.68 555.03
  C 244.93 554.30 234.51 551.23 236.17 546.00"
/>
<path stroke="#7e807f" vector-effect="non-scaling-stroke" d="
  M 294.21 561.54
  C 302.54 561.45 316.58 562.89 325.14 557.17
  C 330.99 553.27 330.62 544.96 324.65 541.41
  C 319.17 538.16 312.07 537.45 306.01 537.49
  Q 295.50 537.56 286.92 537.43
  Q 286.49 537.42 286.49 537.84
  L 286.49 577.45
  Q 286.49 577.54 286.59 577.54
  L 293.34 577.54
  Q 293.52 577.54 293.52 577.36
  L 293.52 562.24
  A 0.70 0.70 0.0 0 1 294.21 561.54"
/>
<path stroke="#7e807f" vector-effect="non-scaling-stroke" d="
  M 374.71 561.14
  C 375.51 560.67 376.29 560.27 377.30 560.09
  C 381.58 559.32 388.04 556.62 388.96 551.78
  C 391.06 540.86 376.85 538.20 369.04 538.07
  Q 362.77 537.97 344.97 538.06
  Q 344.50 538.07 344.50 538.54
  L 344.50 577.33
  Q 344.50 577.53 344.70 577.53
  L 351.30 577.53
  Q 351.51 577.53 351.51 577.32
  L 351.51 562.46
  Q 351.51 561.53 352.43 561.53
  Q 361.41 561.47 365.51 561.49
  Q 367.16 561.49 368.82 563.18
  Q 375.15 569.65 382.23 577.30
  Q 382.43 577.51 382.71 577.51
  L 389.91 577.51
  A 0.11 0.11 0.0 0 0 389.99 577.33
  L 374.61 561.95
  Q 374.14 561.48 374.71 561.14"
/>
<path stroke="#7e807f" vector-effect="non-scaling-stroke" d="
  M 248.09 86.56
  Q 231.88 93.31 216.90 103.67
  Q 212.87 106.45 210.17 108.79
  Q 209.65 109.23 210.33 109.15
  Q 233.12 106.07 254.56 102.78
  Q 254.69 102.76 254.82 102.71
  Q 254.95 102.66 255.06 102.58
  Q 272.49 89.66 290.71 75.64
  Q 291.24 75.22 290.57 75.27
  Q 287.01 75.55 282.20 76.45
  Q 264.30 79.80 248.09 86.56"
/>
<path stroke="#7e807f" vector-effect="non-scaling-stroke" d="
  M 375.28 86.64
  Q 359.10 79.91 341.23 76.58
  Q 336.43 75.68 332.88 75.41
  Q 332.20 75.35 332.74 75.78
  Q 350.93 89.76 368.33 102.63
  Q 368.44 102.71 368.57 102.76
  Q 368.69 102.82 368.83 102.84
  Q 390.23 106.11 412.97 109.16
  Q 413.64 109.24 413.13 108.80
  Q 410.43 106.47 406.41 103.70
  Q 391.46 93.37 375.28 86.64"
/>
<path stroke="#7e807f" vector-effect="non-scaling-stroke" d="
  M 270.31 107.06
  A 0.36 0.36 0.0 0 0 270.39 107.68
  L 311.50 124.91
  A 0.36 0.36 0.0 0 0 311.78 124.91
  L 352.91 107.70
  A 0.36 0.36 0.0 0 0 352.99 107.08
  L 311.88 76.30
  A 0.36 0.36 0.0 0 0 311.44 76.30
  L 270.31 107.06"
/>
<path stroke="#7e807f" vector-effect="non-scaling-stroke" d="
  M 188.41 175.61
  A 0.38 0.38 0.0 0 0 188.93 176.01
  L 230.18 158.76
  A 0.38 0.38 0.0 0 0 230.39 158.55
  L 246.96 117.50
  A 0.38 0.38 0.0 0 0 246.56 116.98
  L 195.83 124.34
  A 0.38 0.38 0.0 0 0 195.51 124.66
  L 188.41 175.61"
/>
<path stroke="#7e807f" vector-effect="non-scaling-stroke" d="
  M 427.60 124.48
  A 0.38 0.38 0.0 0 0 427.28 124.16
  L 376.46 117.08
  A 0.38 0.38 0.0 0 0 376.06 117.61
  L 393.40 159.05
  A 0.38 0.38 0.0 0 0 393.61 159.26
  L 434.46 175.76
  A 0.38 0.38 0.0 0 0 434.98 175.36
  L 427.60 124.48"
/>
<path stroke="#7e807f" vector-effect="non-scaling-stroke" d="
  M 247.05 151.39
  A 0.31 0.31 0.0 0 0 247.45 151.79
  L 294.41 132.24
  A 0.31 0.31 0.0 0 0 294.42 131.67
  L 261.01 117.61
  A 0.31 0.31 0.0 0 0 260.61 117.78
  L 247.05 151.39"
/>
<path stroke="#7e807f" vector-effect="non-scaling-stroke" d="
  M 328.94 131.67
  A 0.35 0.35 0.0 0 0 328.94 132.32
  L 375.76 151.71
  A 0.35 0.35 0.0 0 0 376.22 151.26
  L 362.65 117.79
  A 0.35 0.35 0.0 0 0 362.19 117.60
  L 328.94 131.67"
/>
<path stroke="#7e807f" vector-effect="non-scaling-stroke" d="
  M 158.10 176.98
  Q 151.40 193.26 148.12 211.21
  Q 147.24 216.03 146.98 219.60
  Q 146.93 220.28 147.35 219.74
  Q 161.32 201.42 174.19 183.90
  Q 174.27 183.79 174.32 183.66
  Q 174.37 183.53 174.39 183.40
  Q 177.59 161.90 180.57 139.05
  Q 180.65 138.37 180.21 138.89
  Q 177.88 141.61 175.11 145.65
  Q 164.80 160.71 158.10 176.98"
/>
<path stroke="#7e807f" vector-effect="non-scaling-stroke" d="
  M 465.23 177.05
  Q 458.53 160.79 448.21 145.74
  Q 445.44 141.70 443.11 138.99
  Q 442.67 138.47 442.75 139.15
  Q 445.74 161.98 448.96 183.47
  Q 448.98 183.61 449.03 183.73
  Q 449.08 183.86 449.16 183.97
  Q 462.03 201.48 476.01 219.78
  Q 476.43 220.32 476.38 219.64
  Q 476.11 216.07 475.23 211.26
  Q 471.94 193.31 465.23 177.05"
/>
<path stroke="#7e807f" vector-effect="non-scaling-stroke" d="
  M 210.36 240.90
  Q 210.36 241.14 210.37 241.15
  Q 225.51 278.04 239.73 312.38
  Q 239.98 312.98 240.58 313.23
  Q 284.21 331.41 311.40 342.62
  Q 311.47 342.65 311.66 342.65
  Q 311.85 342.65 311.92 342.62
  Q 339.11 331.40 382.74 313.20
  Q 383.34 312.95 383.59 312.35
  Q 397.79 278.00 412.92 241.10
  Q 412.92 241.09 412.92 240.86
  Q 412.92 240.63 412.92 240.61
  Q 397.77 203.72 383.55 169.38
  Q 383.30 168.78 382.70 168.53
  Q 339.07 150.35 311.88 139.14
  Q 311.81 139.11 311.62 139.11
  Q 311.43 139.11 311.36 139.14
  Q 284.17 150.36 240.55 168.56
  Q 239.95 168.81 239.70 169.41
  Q 225.49 203.76 210.37 240.66
  Q 210.36 240.67 210.36 240.90"
/>
<path stroke="#7e807f" vector-effect="non-scaling-stroke" d="
  M 400.73 175.93
  A 0.35 0.35 0.0 0 0 400.27 176.39
  L 419.65 223.40
  A 0.35 0.35 0.0 0 0 420.29 223.40
  L 434.30 190.13
  A 0.35 0.35 0.0 0 0 434.12 189.67
  L 400.73 175.93"
/>
<path stroke="#7e807f" vector-effect="non-scaling-stroke" d="
  M 202.96 223.39
  A 0.36 0.36 0.0 0 0 203.62 223.39
  L 222.98 176.42
  A 0.36 0.36 0.0 0 0 222.51 175.95
  L 189.15 189.67
  A 0.36 0.36 0.0 0 0 188.96 190.15
  L 202.96 223.39"
/>
<path stroke="#7e807f" vector-effect="non-scaling-stroke" d="
  M 147.73 240.66
  A 0.36 0.36 0.0 0 0 147.73 241.10
  L 178.50 282.23
  A 0.36 0.36 0.0 0 0 179.12 282.15
  L 196.34 241.03
  A 0.36 0.36 0.0 0 0 196.34 240.75
  L 179.13 199.62
  A 0.36 0.36 0.0 0 0 178.51 199.54
  L 147.73 240.66"
/>
<path stroke="#7e807f" vector-effect="non-scaling-stroke" d="
  M 475.55 241.09
  A 0.35 0.35 0.0 0 0 475.55 240.67
  L 444.77 199.52
  A 0.35 0.35 0.0 0 0 444.16 199.59
  L 426.93 240.73
  A 0.35 0.35 0.0 0 0 426.93 241.01
  L 444.14 282.16
  A 0.35 0.35 0.0 0 0 444.75 282.23
  L 475.55 241.09"
/>
<path stroke="#7e807f" vector-effect="non-scaling-stroke" d="
  M 222.51 305.81
  A 0.36 0.36 0.0 0 0 222.98 305.34
  L 203.62 258.38
  A 0.36 0.36 0.0 0 0 202.96 258.37
  L 188.96 291.61
  A 0.36 0.36 0.0 0 0 189.15 292.09
  L 222.51 305.81"
/>
<path stroke="#7e807f" vector-effect="non-scaling-stroke" d="
  M 420.27 258.26
  A 0.31 0.31 0.0 0 0 419.69 258.26
  L 400.24 305.45
  A 0.31 0.31 0.0 0 0 400.65 305.86
  L 434.16 292.07
  A 0.31 0.31 0.0 0 0 434.33 291.66
  L 420.27 258.26"
/>
<path stroke="#7e807f" vector-effect="non-scaling-stroke" d="
  M 158.04 304.70
  Q 164.74 320.97 175.06 336.01
  Q 177.83 340.05 180.16 342.76
  Q 180.60 343.28 180.52 342.60
  Q 177.53 319.77 174.31 298.28
  Q 174.29 298.15 174.24 298.02
  Q 174.19 297.89 174.11 297.79
  Q 161.24 280.28 147.27 261.98
  Q 146.85 261.44 146.90 262.12
  Q 147.16 265.69 148.04 270.50
  Q 151.33 288.44 158.04 304.70"
/>
<path stroke="#7e807f" vector-effect="non-scaling-stroke" d="
  M 465.19 304.73
  Q 471.88 288.47 475.16 270.54
  Q 476.04 265.72 476.30 262.16
  Q 476.35 261.48 475.93 262.02
  Q 461.97 280.31 449.12 297.82
  Q 449.04 297.93 448.99 298.05
  Q 448.93 298.18 448.91 298.31
  Q 445.71 319.79 442.73 342.61
  Q 442.65 343.29 443.09 342.78
  Q 445.42 340.06 448.19 336.02
  Q 458.49 320.98 465.19 304.73"
/>
<path stroke="#7e807f" vector-effect="non-scaling-stroke" d="
  M 195.67 357.27
  A 0.39 0.39 0.0 0 0 196.00 357.60
  L 246.80 364.68
  A 0.39 0.39 0.0 0 0 247.22 364.14
  L 229.88 322.71
  A 0.39 0.39 0.0 0 0 229.67 322.50
  L 188.83 306.00
  A 0.39 0.39 0.0 0 0 188.30 306.42
  L 195.67 357.27"
/>
<path stroke="#7e807f" vector-effect="non-scaling-stroke" d="
  M 434.86 306.13
  A 0.37 0.37 0.0 0 0 434.35 305.74
  L 393.08 323.01
  A 0.37 0.37 0.0 0 0 392.88 323.21
  L 376.30 364.28
  A 0.37 0.37 0.0 0 0 376.70 364.79
  L 427.45 357.42
  A 0.37 0.37 0.0 0 0 427.77 357.10
  L 434.86 306.13"
/>
<path stroke="#7e807f" vector-effect="non-scaling-stroke" d="
  M 376.21 330.39
  A 0.32 0.32 0.0 0 0 375.79 329.97
  L 328.86 349.51
  A 0.32 0.32 0.0 0 0 328.86 350.10
  L 362.24 364.15
  A 0.32 0.32 0.0 0 0 362.66 363.98
  L 376.21 330.39"
/>
<path stroke="#7e807f" vector-effect="non-scaling-stroke" d="
  M 294.43 350.09
  A 0.31 0.31 0.0 0 0 294.43 349.51
  L 247.46 329.96
  A 0.31 0.31 0.0 0 0 247.05 330.36
  L 260.61 363.99
  A 0.31 0.31 0.0 0 0 261.02 364.16
  L 294.43 350.09"
/>
<path stroke="#7e807f" vector-effect="non-scaling-stroke" d="
  M 352.99 374.70
  A 0.37 0.37 0.0 0 0 352.91 374.06
  L 311.80 356.84
  A 0.37 0.37 0.0 0 0 311.52 356.84
  L 270.38 374.05
  A 0.37 0.37 0.0 0 0 270.30 374.69
  L 311.42 405.47
  A 0.37 0.37 0.0 0 0 311.86 405.47
  L 352.99 374.70"
/>
<path stroke="#7e807f" vector-effect="non-scaling-stroke" d="
  M 248.06 395.13
  Q 264.22 401.86 282.06 405.20
  Q 286.85 406.10 290.40 406.37
  Q 291.08 406.42 290.55 406.00
  Q 272.38 392.03 255.00 379.16
  Q 254.89 379.08 254.77 379.03
  Q 254.64 378.98 254.51 378.96
  Q 233.13 375.68 210.42 372.63
  Q 209.74 372.54 210.26 372.98
  Q 212.95 375.31 216.96 378.08
  Q 231.90 388.40 248.06 395.13"
/>
<path stroke="#7e807f" vector-effect="non-scaling-stroke" d="
  M 375.30 395.17
  Q 391.52 388.41 406.50 378.05
  Q 410.53 375.27 413.23 372.93
  Q 413.75 372.49 413.07 372.57
  Q 390.28 375.64 368.82 378.93
  Q 368.69 378.95 368.57 379.01
  Q 368.44 379.06 368.33 379.14
  Q 350.89 392.06 332.66 406.08
  Q 332.12 406.50 332.80 406.45
  Q 336.37 406.18 341.17 405.28
  Q 359.08 401.93 375.30 395.17"
/>
<path stroke="#7e807f" vector-effect="non-scaling-stroke" d="
  M 293.51 542.39
  L 293.49 556.57
  A 1.43 1.43 0.0 0 0 294.92 558.01
  L 308.34 558.03
  A 13.91 8.08 0.1 0 0 322.26 549.98
  L 322.26 549.10
  A 13.91 8.08 0.1 0 0 308.36 540.99
  L 294.94 540.97
  A 1.43 1.43 0.0 0 0 293.51 542.39"
/>
<path stroke="#7e807f" vector-effect="non-scaling-stroke" d="
  M 351.57 542.47
  L 351.45 556.82
  A 1.31 1.31 0.0 0 0 352.75 558.15
  L 367.32 558.27
  A 15.04 8.33 0.5 0 0 382.43 550.07
  L 382.43 549.75
  A 15.04 8.33 0.5 0 0 367.46 541.29
  L 352.89 541.17
  A 1.31 1.31 0.0 0 0 351.57 542.47"
/>
</g>
<path fill="#000000" d="
  M 613.00 0.00
  L 613.00 612.00
  L 0.00 612.00
  L 0.00 0.00
  L 613.00 0.00
  Z
  M 132.62 242.57
  Q 132.96 278.23 146.66 310.43
  Q 176.34 380.18 247.54 408.79
  Q 278.25 421.12 313.33 420.79
  Q 348.41 420.46 378.88 407.55
  Q 449.53 377.60 477.89 307.30
  Q 490.98 274.86 490.64 239.19
  Q 490.31 203.53 476.61 171.34
  Q 446.92 101.58 375.72 72.98
  Q 345.02 60.64 309.94 60.97
  Q 274.86 61.30 244.39 74.21
  Q 173.74 104.16 145.38 174.46
  Q 132.29 206.91 132.62 242.57
  Z
  M 279.68 481.96
  C 279.67 492.05 287.37 498.84 296.59 501.12
  Q 312.37 505.03 328.02 499.04
  Q 328.35 498.92 328.35 498.57
  L 328.35 493.69
  Q 328.35 493.39 328.08 493.53
  Q 321.36 496.92 309.83 497.44
  C 300.19 497.87 286.38 494.14 286.39 481.97
  C 286.39 469.79 300.21 466.08 309.85 466.53
  Q 321.38 467.06 328.09 470.46
  Q 328.36 470.60 328.36 470.30
  L 328.37 465.42
  Q 328.37 465.07 328.04 464.95
  Q 312.40 458.94 296.61 462.82
  C 287.39 465.10 279.68 471.87 279.68 481.96
  Z
  M 401.57 481.97
  C 401.57 492.06 409.26 498.84 418.48 501.13
  Q 434.26 505.03 449.91 499.04
  Q 450.24 498.92 450.24 498.57
  L 450.24 493.69
  Q 450.24 493.39 449.97 493.53
  Q 443.25 496.92 431.72 497.44
  C 422.08 497.87 408.27 494.15 408.28 481.97
  C 408.29 469.80 422.10 466.08 431.74 466.53
  Q 443.27 467.06 449.98 470.46
  Q 450.25 470.60 450.25 470.30
  L 450.26 465.42
  Q 450.26 465.07 449.93 464.95
  Q 434.29 458.94 418.50 462.83
  C 409.28 465.10 401.58 471.88 401.57 481.97
  Z
  M 53.93 501.92
  A 0.40 0.40 0.0 0 0 54.33 501.52
  L 54.33 485.47
  A 0.40 0.40 0.0 0 1 54.73 485.07
  L 81.73 485.07
  A 0.40 0.40 0.0 0 0 82.13 484.67
  L 82.13 480.21
  A 0.40 0.40 0.0 0 0 81.73 479.81
  L 54.72 479.81
  A 0.40 0.40 0.0 0 1 54.32 479.41
  L 54.32 467.71
  A 0.40 0.40 0.0 0 1 54.72 467.31
  L 87.80 467.31
  A 0.40 0.40 0.0 0 0 88.20 466.91
  L 88.20 462.40
  A 0.40 0.40 0.0 0 0 87.80 462.00
  L 48.40 462.00
  A 0.40 0.40 0.0 0 0 48.00 462.40
  L 48.00 501.52
  A 0.40 0.40 0.0 0 0 48.40 501.92
  L 53.93 501.92
  Z
  M 112.57 496.01
  L 112.57 484.31
  Q 112.57 483.88 113.00 483.88
  L 140.37 483.87
  Q 140.70 483.87 140.70 483.49
  L 140.72 478.96
  Q 140.72 478.56 140.27 478.56
  L 113.08 478.57
  Q 112.57 478.57 112.57 478.07
  L 112.57 467.66
  Q 112.57 467.17 113.08 467.17
  L 146.08 467.18
  Q 146.41 467.18 146.41 466.85
  L 146.41 462.35
  Q 146.41 461.99 146.06 461.99
  L 106.72 461.99
  Q 106.19 461.99 106.19 462.52
  L 106.19 501.45
  Q 106.19 501.94 106.69 501.94
  L 146.21 501.94
  Q 146.42 501.94 146.42 501.72
  L 146.43 496.89
  Q 146.43 496.63 146.17 496.63
  L 113.22 496.64
  Q 112.57 496.64 112.57 496.01
  Z
  M 206.64 496.98
  A 0.35 0.35 0.0 0 0 206.29 496.63
  L 173.16 496.63
  A 0.35 0.35 0.0 0 1 172.81 496.28
  L 172.81 484.23
  A 0.35 0.35 0.0 0 1 173.16 483.88
  L 200.58 483.88
  A 0.35 0.35 0.0 0 0 200.93 483.53
  L 200.93 478.92
  A 0.35 0.35 0.0 0 0 200.58 478.57
  L 173.16 478.57
  A 0.35 0.35 0.0 0 1 172.81 478.22
  L 172.81 467.54
  A 0.35 0.35 0.0 0 1 173.16 467.19
  L 206.28 467.19
  A 0.35 0.35 0.0 0 0 206.63 466.84
  L 206.63 462.35
  A 0.35 0.35 0.0 0 0 206.28 462.00
  L 166.78 462.00
  A 0.35 0.35 0.0 0 0 166.43 462.35
  L 166.43 501.58
  A 0.35 0.35 0.0 0 0 166.78 501.93
  L 206.29 501.93
  A 0.35 0.35 0.0 0 0 206.64 501.58
  L 206.64 496.98
  Z
  M 264.86 496.98
  A 0.35 0.35 0.0 0 0 264.51 496.63
  L 233.98 496.63
  A 0.35 0.35 0.0 0 1 233.63 496.28
  L 233.63 462.37
  A 0.35 0.35 0.0 0 0 233.28 462.02
  L 227.67 462.02
  A 0.35 0.35 0.0 0 0 227.32 462.37
  L 227.32 501.58
  A 0.35 0.35 0.0 0 0 227.67 501.93
  L 264.51 501.93
  A 0.35 0.35 0.0 0 0 264.86 501.58
  L 264.86 496.98
  Z
  M 366.55 501.94
  Q 368.68 501.94 369.22 501.89
  Q 369.69 501.85 369.69 501.38
  L 369.69 487.21
  Q 369.69 486.69 370.03 486.31
  L 391.78 462.18
  A 0.09 0.08 -69.1 0 0 391.72 462.04
  L 384.06 462.04
  Q 383.80 462.04 383.63 462.24
  Q 374.76 472.35 366.82 481.29
  Q 366.77 481.35 366.71 481.37
  Q 366.64 481.39 366.57 481.39
  Q 366.50 481.39 366.43 481.37
  Q 366.37 481.35 366.32 481.29
  Q 358.40 472.34 349.54 462.21
  Q 349.37 462.01 349.11 462.01
  L 341.45 462.00
  A 0.09 0.08 69.2 0 0 341.39 462.14
  L 363.10 486.30
  Q 363.44 486.68 363.44 487.20
  L 363.41 501.37
  Q 363.41 501.84 363.88 501.89
  Q 364.42 501.94 366.55 501.94
  Z
  M 477.12 496.25
  L 477.13 462.33
  Q 477.13 462.00 476.80 462.00
  L 471.02 462.00
  Q 470.82 462.00 470.82 462.20
  L 470.82 501.70
  A 0.23 0.23 0.0 0 0 471.05 501.93
  L 508.05 501.94
  A 0.33 0.33 0.0 0 0 508.38 501.61
  L 508.38 497.00
  Q 508.38 496.63 508.01 496.63
  L 477.50 496.63
  A 0.38 0.38 0.0 0 1 477.12 496.25
  Z
  M 531.17 495.99
  L 531.18 484.31
  Q 531.18 483.88 531.61 483.88
  L 558.95 483.87
  Q 559.28 483.87 559.28 483.49
  L 559.30 478.97
  Q 559.30 478.57 558.85 478.57
  L 531.69 478.57
  Q 531.18 478.57 531.18 478.07
  L 531.18 467.67
  Q 531.18 467.18 531.69 467.18
  L 564.66 467.20
  Q 564.99 467.20 564.99 466.87
  L 564.99 462.38
  Q 564.99 462.02 564.64 462.02
  L 525.34 462.00
  Q 524.81 462.00 524.81 462.53
  L 524.80 501.43
  Q 524.80 501.92 525.30 501.92
  L 564.78 501.93
  Q 564.99 501.93 564.99 501.71
  L 565.00 496.89
  Q 565.00 496.63 564.74 496.63
  L 531.82 496.62
  Q 531.17 496.62 531.17 495.99
  Z
  M 236.17 546.00
  C 237.21 542.74 241.28 541.28 244.51 540.78
  Q 256.03 539.01 268.46 542.58
  Q 268.55 542.61 268.55 542.51
  L 268.55 538.69
  Q 268.55 538.41 268.28 538.35
  Q 257.38 536.20 249.00 536.57
  C 242.39 536.87 229.34 538.24 229.94 547.55
  C 230.36 554.09 237.52 556.52 242.94 557.83
  C 249.98 559.53 257.06 560.25 262.17 563.47
  C 264.55 564.98 266.21 568.12 264.03 570.60
  C 261.26 573.76 256.11 574.53 251.76 574.73
  Q 240.95 575.22 230.25 572.06
  A 0.18 0.18 0.0 0 0 230.02 572.23
  L 230.02 576.02
  Q 230.02 576.29 230.29 576.36
  Q 241.03 578.84 252.27 578.40
  C 257.82 578.19 264.61 577.27 269.09 573.84
  C 272.71 571.07 273.40 565.83 270.02 562.55
  C 265.50 558.14 255.55 556.37 248.68 555.03
  C 244.93 554.30 234.51 551.23 236.17 546.00
  Z
  M 294.21 561.54
  C 302.54 561.45 316.58 562.89 325.14 557.17
  C 330.99 553.27 330.62 544.96 324.65 541.41
  C 319.17 538.16 312.07 537.45 306.01 537.49
  Q 295.50 537.56 286.92 537.43
  Q 286.49 537.42 286.49 537.84
  L 286.49 577.45
  Q 286.49 577.54 286.59 577.54
  L 293.34 577.54
  Q 293.52 577.54 293.52 577.36
  L 293.52 562.24
  A 0.70 0.70 0.0 0 1 294.21 561.54
  Z
  M 374.71 561.14
  C 375.51 560.67 376.29 560.27 377.30 560.09
  C 381.58 559.32 388.04 556.62 388.96 551.78
  C 391.06 540.86 376.85 538.20 369.04 538.07
  Q 362.77 537.97 344.97 538.06
  Q 344.50 538.07 344.50 538.54
  L 344.50 577.33
  Q 344.50 577.53 344.70 577.53
  L 351.30 577.53
  Q 351.51 577.53 351.51 577.32
  L 351.51 562.46
  Q 351.51 561.53 352.43 561.53
  Q 361.41 561.47 365.51 561.49
  Q 367.16 561.49 368.82 563.18
  Q 375.15 569.65 382.23 577.30
  Q 382.43 577.51 382.71 577.51
  L 389.91 577.51
  A 0.11 0.11 0.0 0 0 389.99 577.33
  L 374.61 561.95
  Q 374.14 561.48 374.71 561.14
  Z"
/>
<path fill="#fbfffe" d="
  M 309.94 60.97
  Q 345.02 60.64 375.72 72.98
  Q 446.92 101.58 476.61 171.34
  Q 490.31 203.53 490.64 239.19
  Q 490.98 274.86 477.89 307.30
  Q 449.53 377.60 378.88 407.55
  Q 348.41 420.46 313.33 420.79
  Q 278.25 421.12 247.54 408.79
  Q 176.34 380.18 146.66 310.43
  Q 132.96 278.23 132.62 242.57
  Q 132.29 206.91 145.38 174.46
  Q 173.74 104.16 244.39 74.21
  Q 274.86 61.30 309.94 60.97
  Z
  M 248.09 86.56
  Q 231.88 93.31 216.90 103.67
  Q 212.87 106.45 210.17 108.79
  Q 209.65 109.23 210.33 109.15
  Q 233.12 106.07 254.56 102.78
  Q 254.69 102.76 254.82 102.71
  Q 254.95 102.66 255.06 102.58
  Q 272.49 89.66 290.71 75.64
  Q 291.24 75.22 290.57 75.27
  Q 287.01 75.55 282.20 76.45
  Q 264.30 79.80 248.09 86.56
  Z
  M 375.28 86.64
  Q 359.10 79.91 341.23 76.58
  Q 336.43 75.68 332.88 75.41
  Q 332.20 75.35 332.74 75.78
  Q 350.93 89.76 368.33 102.63
  Q 368.44 102.71 368.57 102.76
  Q 368.69 102.82 368.83 102.84
  Q 390.23 106.11 412.97 109.16
  Q 413.64 109.24 413.13 108.80
  Q 410.43 106.47 406.41 103.70
  Q 391.46 93.37 375.28 86.64
  Z
  M 270.31 107.06
  A 0.36 0.36 0.0 0 0 270.39 107.68
  L 311.50 124.91
  A 0.36 0.36 0.0 0 0 311.78 124.91
  L 352.91 107.70
  A 0.36 0.36 0.0 0 0 352.99 107.08
  L 311.88 76.30
  A 0.36 0.36 0.0 0 0 311.44 76.30
  L 270.31 107.06
  Z
  M 188.41 175.61
  A 0.38 0.38 0.0 0 0 188.93 176.01
  L 230.18 158.76
  A 0.38 0.38 0.0 0 0 230.39 158.55
  L 246.96 117.50
  A 0.38 0.38 0.0 0 0 246.56 116.98
  L 195.83 124.34
  A 0.38 0.38 0.0 0 0 195.51 124.66
  L 188.41 175.61
  Z
  M 427.60 124.48
  A 0.38 0.38 0.0 0 0 427.28 124.16
  L 376.46 117.08
  A 0.38 0.38 0.0 0 0 376.06 117.61
  L 393.40 159.05
  A 0.38 0.38 0.0 0 0 393.61 159.26
  L 434.46 175.76
  A 0.38 0.38 0.0 0 0 434.98 175.36
  L 427.60 124.48
  Z
  M 247.05 151.39
  A 0.31 0.31 0.0 0 0 247.45 151.79
  L 294.41 132.24
  A 0.31 0.31 0.0 0 0 294.42 131.67
  L 261.01 117.61
  A 0.31 0.31 0.0 0 0 260.61 117.78
  L 247.05 151.39
  Z
  M 328.94 131.67
  A 0.35 0.35 0.0 0 0 328.94 132.32
  L 375.76 151.71
  A 0.35 0.35 0.0 0 0 376.22 151.26
  L 362.65 117.79
  A 0.35 0.35 0.0 0 0 362.19 117.60
  L 328.94 131.67
  Z
  M 158.10 176.98
  Q 151.40 193.26 148.12 211.21
  Q 147.24 216.03 146.98 219.60
  Q 146.93 220.28 147.35 219.74
  Q 161.32 201.42 174.19 183.90
  Q 174.27 183.79 174.32 183.66
  Q 174.37 183.53 174.39 183.40
  Q 177.59 161.90 180.57 139.05
  Q 180.65 138.37 180.21 138.89
  Q 177.88 141.61 175.11 145.65
  Q 164.80 160.71 158.10 176.98
  Z
  M 465.23 177.05
  Q 458.53 160.79 448.21 145.74
  Q 445.44 141.70 443.11 138.99
  Q 442.67 138.47 442.75 139.15
  Q 445.74 161.98 448.96 183.47
  Q 448.98 183.61 449.03 183.73
  Q 449.08 183.86 449.16 183.97
  Q 462.03 201.48 476.01 219.78
  Q 476.43 220.32 476.38 219.64
  Q 476.11 216.07 475.23 211.26
  Q 471.94 193.31 465.23 177.05
  Z
  M 210.36 240.90
  Q 210.36 241.14 210.37 241.15
  Q 225.51 278.04 239.73 312.38
  Q 239.98 312.98 240.58 313.23
  Q 284.21 331.41 311.40 342.62
  Q 311.47 342.65 311.66 342.65
  Q 311.85 342.65 311.92 342.62
  Q 339.11 331.40 382.74 313.20
  Q 383.34 312.95 383.59 312.35
  Q 397.79 278.00 412.92 241.10
  Q 412.92 241.09 412.92 240.86
  Q 412.92 240.63 412.92 240.61
  Q 397.77 203.72 383.55 169.38
  Q 383.30 168.78 382.70 168.53
  Q 339.07 150.35 311.88 139.14
  Q 311.81 139.11 311.62 139.11
  Q 311.43 139.11 311.36 139.14
  Q 284.17 150.36 240.55 168.56
  Q 239.95 168.81 239.70 169.41
  Q 225.49 203.76 210.37 240.66
  Q 210.36 240.67 210.36 240.90
  Z
  M 400.73 175.93
  A 0.35 0.35 0.0 0 0 400.27 176.39
  L 419.65 223.40
  A 0.35 0.35 0.0 0 0 420.29 223.40
  L 434.30 190.13
  A 0.35 0.35 0.0 0 0 434.12 189.67
  L 400.73 175.93
  Z
  M 202.96 223.39
  A 0.36 0.36 0.0 0 0 203.62 223.39
  L 222.98 176.42
  A 0.36 0.36 0.0 0 0 222.51 175.95
  L 189.15 189.67
  A 0.36 0.36 0.0 0 0 188.96 190.15
  L 202.96 223.39
  Z
  M 147.73 240.66
  A 0.36 0.36 0.0 0 0 147.73 241.10
  L 178.50 282.23
  A 0.36 0.36 0.0 0 0 179.12 282.15
  L 196.34 241.03
  A 0.36 0.36 0.0 0 0 196.34 240.75
  L 179.13 199.62
  A 0.36 0.36 0.0 0 0 178.51 199.54
  L 147.73 240.66
  Z
  M 475.55 241.09
  A 0.35 0.35 0.0 0 0 475.55 240.67
  L 444.77 199.52
  A 0.35 0.35 0.0 0 0 444.16 199.59
  L 426.93 240.73
  A 0.35 0.35 0.0 0 0 426.93 241.01
  L 444.14 282.16
  A 0.35 0.35 0.0 0 0 444.75 282.23
  L 475.55 241.09
  Z
  M 222.51 305.81
  A 0.36 0.36 0.0 0 0 222.98 305.34
  L 203.62 258.38
  A 0.36 0.36 0.0 0 0 202.96 258.37
  L 188.96 291.61
  A 0.36 0.36 0.0 0 0 189.15 292.09
  L 222.51 305.81
  Z
  M 420.27 258.26
  A 0.31 0.31 0.0 0 0 419.69 258.26
  L 400.24 305.45
  A 0.31 0.31 0.0 0 0 400.65 305.86
  L 434.16 292.07
  A 0.31 0.31 0.0 0 0 434.33 291.66
  L 420.27 258.26
  Z
  M 158.04 304.70
  Q 164.74 320.97 175.06 336.01
  Q 177.83 340.05 180.16 342.76
  Q 180.60 343.28 180.52 342.60
  Q 177.53 319.77 174.31 298.28
  Q 174.29 298.15 174.24 298.02
  Q 174.19 297.89 174.11 297.79
  Q 161.24 280.28 147.27 261.98
  Q 146.85 261.44 146.90 262.12
  Q 147.16 265.69 148.04 270.50
  Q 151.33 288.44 158.04 304.70
  Z
  M 465.19 304.73
  Q 471.88 288.47 475.16 270.54
  Q 476.04 265.72 476.30 262.16
  Q 476.35 261.48 475.93 262.02
  Q 461.97 280.31 449.12 297.82
  Q 449.04 297.93 448.99 298.05
  Q 448.93 298.18 448.91 298.31
  Q 445.71 319.79 442.73 342.61
  Q 442.65 343.29 443.09 342.78
  Q 445.42 340.06 448.19 336.02
  Q 458.49 320.98 465.19 304.73
  Z
  M 195.67 357.27
  A 0.39 0.39 0.0 0 0 196.00 357.60
  L 246.80 364.68
  A 0.39 0.39 0.0 0 0 247.22 364.14
  L 229.88 322.71
  A 0.39 0.39 0.0 0 0 229.67 322.50
  L 188.83 306.00
  A 0.39 0.39 0.0 0 0 188.30 306.42
  L 195.67 357.27
  Z
  M 434.86 306.13
  A 0.37 0.37 0.0 0 0 434.35 305.74
  L 393.08 323.01
  A 0.37 0.37 0.0 0 0 392.88 323.21
  L 376.30 364.28
  A 0.37 0.37 0.0 0 0 376.70 364.79
  L 427.45 357.42
  A 0.37 0.37 0.0 0 0 427.77 357.10
  L 434.86 306.13
  Z
  M 376.21 330.39
  A 0.32 0.32 0.0 0 0 375.79 329.97
  L 328.86 349.51
  A 0.32 0.32 0.0 0 0 328.86 350.10
  L 362.24 364.15
  A 0.32 0.32 0.0 0 0 362.66 363.98
  L 376.21 330.39
  Z
  M 294.43 350.09
  A 0.31 0.31 0.0 0 0 294.43 349.51
  L 247.46 329.96
  A 0.31 0.31 0.0 0 0 247.05 330.36
  L 260.61 363.99
  A 0.31 0.31 0.0 0 0 261.02 364.16
  L 294.43 350.09
  Z
  M 352.99 374.70
  A 0.37 0.37 0.0 0 0 352.91 374.06
  L 311.80 356.84
  A 0.37 0.37 0.0 0 0 311.52 356.84
  L 270.38 374.05
  A 0.37 0.37 0.0 0 0 270.30 374.69
  L 311.42 405.47
  A 0.37 0.37 0.0 0 0 311.86 405.47
  L 352.99 374.70
  Z
  M 248.06 395.13
  Q 264.22 401.86 282.06 405.20
  Q 286.85 406.10 290.40 406.37
  Q 291.08 406.42 290.55 406.00
  Q 272.38 392.03 255.00 379.16
  Q 254.89 379.08 254.77 379.03
  Q 254.64 378.98 254.51 378.96
  Q 233.13 375.68 210.42 372.63
  Q 209.74 372.54 210.26 372.98
  Q 212.95 375.31 216.96 378.08
  Q 231.90 388.40 248.06 395.13
  Z
  M 375.30 395.17
  Q 391.52 388.41 406.50 378.05
  Q 410.53 375.27 413.23 372.93
  Q 413.75 372.49 413.07 372.57
  Q 390.28 375.64 368.82 378.93
  Q 368.69 378.95 368.57 379.01
  Q 368.44 379.06 368.33 379.14
  Q 350.89 392.06 332.66 406.08
  Q 332.12 406.50 332.80 406.45
  Q 336.37 406.18 341.17 405.28
  Q 359.08 401.93 375.30 395.17
  Z"
/>
<path fill="#000000" d="
  M 248.09 86.56
  Q 264.30 79.80 282.20 76.45
  Q 287.01 75.55 290.57 75.27
  Q 291.24 75.22 290.71 75.64
  Q 272.49 89.66 255.06 102.58
  Q 254.95 102.66 254.82 102.71
  Q 254.69 102.76 254.56 102.78
  Q 233.12 106.07 210.33 109.15
  Q 209.65 109.23 210.17 108.79
  Q 212.87 106.45 216.90 103.67
  Q 231.88 93.31 248.09 86.56
  Z"
/>
<path fill="#000000" d="
  M 375.28 86.64
  Q 391.46 93.37 406.41 103.70
  Q 410.43 106.47 413.13 108.80
  Q 413.64 109.24 412.97 109.16
  Q 390.23 106.11 368.83 102.84
  Q 368.69 102.82 368.57 102.76
  Q 368.44 102.71 368.33 102.63
  Q 350.93 89.76 332.74 75.78
  Q 332.20 75.35 332.88 75.41
  Q 336.43 75.68 341.23 76.58
  Q 359.10 79.91 375.28 86.64
  Z"
/>
<path fill="#000000" d="
  M 270.31 107.06
  L 311.44 76.30
  A 0.36 0.36 0.0 0 1 311.88 76.30
  L 352.99 107.08
  A 0.36 0.36 0.0 0 1 352.91 107.70
  L 311.78 124.91
  A 0.36 0.36 0.0 0 1 311.50 124.91
  L 270.39 107.68
  A 0.36 0.36 0.0 0 1 270.31 107.06
  Z"
/>
<path fill="#000000" d="
  M 188.41 175.61
  L 195.51 124.66
  A 0.38 0.38 0.0 0 1 195.83 124.34
  L 246.56 116.98
  A 0.38 0.38 0.0 0 1 246.96 117.50
  L 230.39 158.55
  A 0.38 0.38 0.0 0 1 230.18 158.76
  L 188.93 176.01
  A 0.38 0.38 0.0 0 1 188.41 175.61
  Z"
/>
<path fill="#000000" d="
  M 427.60 124.48
  L 434.98 175.36
  A 0.38 0.38 0.0 0 1 434.46 175.76
  L 393.61 159.26
  A 0.38 0.38 0.0 0 1 393.40 159.05
  L 376.06 117.61
  A 0.38 0.38 0.0 0 1 376.46 117.08
  L 427.28 124.16
  A 0.38 0.38 0.0 0 1 427.60 124.48
  Z"
/>
<path fill="#000000" d="
  M 247.05 151.39
  L 260.61 117.78
  A 0.31 0.31 0.0 0 1 261.01 117.61
  L 294.42 131.67
  A 0.31 0.31 0.0 0 1 294.41 132.24
  L 247.45 151.79
  A 0.31 0.31 0.0 0 1 247.05 151.39
  Z"
/>
<path fill="#000000" d="
  M 328.94 131.67
  L 362.19 117.60
  A 0.35 0.35 0.0 0 1 362.65 117.79
  L 376.22 151.26
  A 0.35 0.35 0.0 0 1 375.76 151.71
  L 328.94 132.32
  A 0.35 0.35 0.0 0 1 328.94 131.67
  Z"
/>
<path fill="#000000" d="
  M 174.32 183.66
  Q 174.27 183.79 174.19 183.90
  Q 161.32 201.42 147.35 219.74
  Q 146.93 220.28 146.98 219.60
  Q 147.24 216.03 148.12 211.21
  Q 151.40 193.26 158.10 176.98
  Q 164.80 160.71 175.11 145.65
  Q 177.88 141.61 180.21 138.89
  Q 180.65 138.37 180.57 139.05
  Q 177.59 161.90 174.39 183.40
  Q 174.37 183.53 174.32 183.66
  Z"
/>
<path fill="#000000" d="
  M 465.23 177.05
  Q 471.94 193.31 475.23 211.26
  Q 476.11 216.07 476.38 219.64
  Q 476.43 220.32 476.01 219.78
  Q 462.03 201.48 449.16 183.97
  Q 449.08 183.86 449.03 183.73
  Q 448.98 183.61 448.96 183.47
  Q 445.74 161.98 442.75 139.15
  Q 442.67 138.47 443.11 138.99
  Q 445.44 141.70 448.21 145.74
  Q 458.53 160.79 465.23 177.05
  Z"
/>
<path fill="#000000" d="
  M 311.62 139.11
  Q 311.81 139.11 311.88 139.14
  Q 339.07 150.35 382.70 168.53
  Q 383.30 168.78 383.55 169.38
  Q 397.77 203.72 412.92 240.61
  Q 412.92 240.63 412.92 240.86
  Q 412.92 241.09 412.92 241.10
  Q 397.79 278.00 383.59 312.35
  Q 383.34 312.95 382.74 313.20
  Q 339.11 331.40 311.92 342.62
  Q 311.85 342.65 311.66 342.65
  Q 311.47 342.65 311.40 342.62
  Q 284.21 331.41 240.58 313.23
  Q 239.98 312.98 239.73 312.38
  Q 225.51 278.04 210.37 241.15
  Q 210.36 241.14 210.36 240.90
  Q 210.36 240.67 210.37 240.66
  Q 225.49 203.76 239.70 169.41
  Q 239.95 168.81 240.55 168.56
  Q 284.17 150.36 311.36 139.14
  Q 311.43 139.11 311.62 139.11
  Z"
/>
<path fill="#000000" d="
  M 400.73 175.93
  L 434.12 189.67
  A 0.35 0.35 0.0 0 1 434.30 190.13
  L 420.29 223.40
  A 0.35 0.35 0.0 0 1 419.65 223.40
  L 400.27 176.39
  A 0.35 0.35 0.0 0 1 400.73 175.93
  Z"
/>
<path fill="#000000" d="
  M 202.96 223.39
  L 188.96 190.15
  A 0.36 0.36 0.0 0 1 189.15 189.67
  L 222.51 175.95
  A 0.36 0.36 0.0 0 1 222.98 176.42
  L 203.62 223.39
  A 0.36 0.36 0.0 0 1 202.96 223.39
  Z"
/>
<path fill="#000000" d="
  M 147.73 240.66
  L 178.51 199.54
  A 0.36 0.36 0.0 0 1 179.13 199.62
  L 196.34 240.75
  A 0.36 0.36 0.0 0 1 196.34 241.03
  L 179.12 282.15
  A 0.36 0.36 0.0 0 1 178.50 282.23
  L 147.73 241.10
  A 0.36 0.36 0.0 0 1 147.73 240.66
  Z"
/>
<path fill="#000000" d="
  M 475.55 241.09
  L 444.75 282.23
  A 0.35 0.35 0.0 0 1 444.14 282.16
  L 426.93 241.01
  A 0.35 0.35 0.0 0 1 426.93 240.73
  L 444.16 199.59
  A 0.35 0.35 0.0 0 1 444.77 199.52
  L 475.55 240.67
  A 0.35 0.35 0.0 0 1 475.55 241.09
  Z"
/>
<path fill="#000000" d="
  M 222.51 305.81
  L 189.15 292.09
  A 0.36 0.36 0.0 0 1 188.96 291.61
  L 202.96 258.37
  A 0.36 0.36 0.0 0 1 203.62 258.38
  L 222.98 305.34
  A 0.36 0.36 0.0 0 1 222.51 305.81
  Z"
/>
<path fill="#000000" d="
  M 420.27 258.26
  L 434.33 291.66
  A 0.31 0.31 0.0 0 1 434.16 292.07
  L 400.65 305.86
  A 0.31 0.31 0.0 0 1 400.24 305.45
  L 419.69 258.26
  A 0.31 0.31 0.0 0 1 420.27 258.26
  Z"
/>
<path fill="#000000" d="
  M 158.04 304.70
  Q 151.33 288.44 148.04 270.50
  Q 147.16 265.69 146.90 262.12
  Q 146.85 261.44 147.27 261.98
  Q 161.24 280.28 174.11 297.79
  Q 174.19 297.89 174.24 298.02
  Q 174.29 298.15 174.31 298.28
  Q 177.53 319.77 180.52 342.60
  Q 180.60 343.28 180.16 342.76
  Q 177.83 340.05 175.06 336.01
  Q 164.74 320.97 158.04 304.70
  Z"
/>
<path fill="#000000" d="
  M 465.19 304.73
  Q 458.49 320.98 448.19 336.02
  Q 445.42 340.06 443.09 342.78
  Q 442.65 343.29 442.73 342.61
  Q 445.71 319.79 448.91 298.31
  Q 448.93 298.18 448.99 298.05
  Q 449.04 297.93 449.12 297.82
  Q 461.97 280.31 475.93 262.02
  Q 476.35 261.48 476.30 262.16
  Q 476.04 265.72 475.16 270.54
  Q 471.88 288.47 465.19 304.73
  Z"
/>
<path fill="#000000" d="
  M 195.67 357.27
  L 188.30 306.42
  A 0.39 0.39 0.0 0 1 188.83 306.00
  L 229.67 322.50
  A 0.39 0.39 0.0 0 1 229.88 322.71
  L 247.22 364.14
  A 0.39 0.39 0.0 0 1 246.80 364.68
  L 196.00 357.60
  A 0.39 0.39 0.0 0 1 195.67 357.27
  Z"
/>
<path fill="#000000" d="
  M 434.86 306.13
  L 427.77 357.10
  A 0.37 0.37 0.0 0 1 427.45 357.42
  L 376.70 364.79
  A 0.37 0.37 0.0 0 1 376.30 364.28
  L 392.88 323.21
  A 0.37 0.37 0.0 0 1 393.08 323.01
  L 434.35 305.74
  A 0.37 0.37 0.0 0 1 434.86 306.13
  Z"
/>
<path fill="#000000" d="
  M 376.21 330.39
  L 362.66 363.98
  A 0.32 0.32 0.0 0 1 362.24 364.15
  L 328.86 350.10
  A 0.32 0.32 0.0 0 1 328.86 349.51
  L 375.79 329.97
  A 0.32 0.32 0.0 0 1 376.21 330.39
  Z"
/>
<path fill="#000000" d="
  M 294.43 350.09
  L 261.02 364.16
  A 0.31 0.31 0.0 0 1 260.61 363.99
  L 247.05 330.36
  A 0.31 0.31 0.0 0 1 247.46 329.96
  L 294.43 349.51
  A 0.31 0.31 0.0 0 1 294.43 350.09
  Z"
/>
<path fill="#000000" d="
  M 352.99 374.70
  L 311.86 405.47
  A 0.37 0.37 0.0 0 1 311.42 405.47
  L 270.30 374.69
  A 0.37 0.37 0.0 0 1 270.38 374.05
  L 311.52 356.84
  A 0.37 0.37 0.0 0 1 311.80 356.84
  L 352.91 374.06
  A 0.37 0.37 0.0 0 1 352.99 374.70
  Z"
/>
<path fill="#000000" d="
  M 248.06 395.13
  Q 231.90 388.40 216.96 378.08
  Q 212.95 375.31 210.26 372.98
  Q 209.74 372.54 210.42 372.63
  Q 233.13 375.68 254.51 378.96
  Q 254.64 378.98 254.77 379.03
  Q 254.89 379.08 255.00 379.16
  Q 272.38 392.03 290.55 406.00
  Q 291.08 406.42 290.40 406.37
  Q 286.85 406.10 282.06 405.20
  Q 264.22 401.86 248.06 395.13
  Z"
/>
<path fill="#000000" d="
  M 375.30 395.17
  Q 359.08 401.93 341.17 405.28
  Q 336.37 406.18 332.80 406.45
  Q 332.12 406.50 332.66 406.08
  Q 350.89 392.06 368.33 379.14
  Q 368.44 379.06 368.57 379.01
  Q 368.69 378.95 368.82 378.93
  Q 390.28 375.64 413.07 372.57
  Q 413.75 372.49 413.23 372.93
  Q 410.53 375.27 406.50 378.05
  Q 391.52 388.41 375.30 395.17
  Z"
/>
<path fill="#fbfffe" d="
  M 286.39 481.97
  C 286.38 494.14 300.19 497.87 309.83 497.44
  Q 321.36 496.92 328.08 493.53
  Q 328.35 493.39 328.35 493.69
  L 328.35 498.57
  Q 328.35 498.92 328.02 499.04
  Q 312.37 505.03 296.59 501.12
  C 287.37 498.84 279.67 492.05 279.68 481.96
  C 279.68 471.87 287.39 465.10 296.61 462.82
  Q 312.40 458.94 328.04 464.95
  Q 328.37 465.07 328.37 465.42
  L 328.36 470.30
  Q 328.36 470.60 328.09 470.46
  Q 321.38 467.06 309.85 466.53
  C 300.21 466.08 286.39 469.79 286.39 481.97
  Z"
/>
<path fill="#fbfffe" d="
  M 401.57 481.97
  C 401.58 471.88 409.28 465.10 418.50 462.83
  Q 434.29 458.94 449.93 464.95
  Q 450.26 465.07 450.26 465.42
  L 450.25 470.30
  Q 450.25 470.60 449.98 470.46
  Q 443.27 467.06 431.74 466.53
  C 422.10 466.08 408.29 469.80 408.28 481.97
  C 408.27 494.15 422.08 497.87 431.72 497.44
  Q 443.25 496.92 449.97 493.53
  Q 450.24 493.39 450.24 493.69
  L 450.24 498.57
  Q 450.24 498.92 449.91 499.04
  Q 434.26 505.03 418.48 501.13
  C 409.26 498.84 401.57 492.06 401.57 481.97
  Z"
/>
<path fill="#fbfffe" d="
  M 53.93 501.92
  L 48.40 501.92
  A 0.40 0.40 0.0 0 1 48.00 501.52
  L 48.00 462.40
  A 0.40 0.40 0.0 0 1 48.40 462.00
  L 87.80 462.00
  A 0.40 0.40 0.0 0 1 88.20 462.40
  L 88.20 466.91
  A 0.40 0.40 0.0 0 1 87.80 467.31
  L 54.72 467.31
  A 0.40 0.40 0.0 0 0 54.32 467.71
  L 54.32 479.41
  A 0.40 0.40 0.0 0 0 54.72 479.81
  L 81.73 479.81
  A 0.40 0.40 0.0 0 1 82.13 480.21
  L 82.13 484.67
  A 0.40 0.40 0.0 0 1 81.73 485.07
  L 54.73 485.07
  A 0.40 0.40 0.0 0 0 54.33 485.47
  L 54.33 501.52
  A 0.40 0.40 0.0 0 1 53.93 501.92
  Z"
/>
<path fill="#fbfffe" d="
  M 112.57 496.01
  Q 112.57 496.64 113.22 496.64
  L 146.17 496.63
  Q 146.43 496.63 146.43 496.89
  L 146.42 501.72
  Q 146.42 501.94 146.21 501.94
  L 106.69 501.94
  Q 106.19 501.94 106.19 501.45
  L 106.19 462.52
  Q 106.19 461.99 106.72 461.99
  L 146.06 461.99
  Q 146.41 461.99 146.41 462.35
  L 146.41 466.85
  Q 146.41 467.18 146.08 467.18
  L 113.08 467.17
  Q 112.57 467.17 112.57 467.66
  L 112.57 478.07
  Q 112.57 478.57 113.08 478.57
  L 140.27 478.56
  Q 140.72 478.56 140.72 478.96
  L 140.70 483.49
  Q 140.70 483.87 140.37 483.87
  L 113.00 483.88
  Q 112.57 483.88 112.57 484.31
  L 112.57 496.01
  Z"
/>
<path fill="#fbfffe" d="
  M 206.64 496.98
  L 206.64 501.58
  A 0.35 0.35 0.0 0 1 206.29 501.93
  L 166.78 501.93
  A 0.35 0.35 0.0 0 1 166.43 501.58
  L 166.43 462.35
  A 0.35 0.35 0.0 0 1 166.78 462.00
  L 206.28 462.00
  A 0.35 0.35 0.0 0 1 206.63 462.35
  L 206.63 466.84
  A 0.35 0.35 0.0 0 1 206.28 467.19
  L 173.16 467.19
  A 0.35 0.35 0.0 0 0 172.81 467.54
  L 172.81 478.22
  A 0.35 0.35 0.0 0 0 173.16 478.57
  L 200.58 478.57
  A 0.35 0.35 0.0 0 1 200.93 478.92
  L 200.93 483.53
  A 0.35 0.35 0.0 0 1 200.58 483.88
  L 173.16 483.88
  A 0.35 0.35 0.0 0 0 172.81 484.23
  L 172.81 496.28
  A 0.35 0.35 0.0 0 0 173.16 496.63
  L 206.29 496.63
  A 0.35 0.35 0.0 0 1 206.64 496.98
  Z"
/>
<path fill="#fbfffe" d="
  M 264.86 496.98
  L 264.86 501.58
  A 0.35 0.35 0.0 0 1 264.51 501.93
  L 227.67 501.93
  A 0.35 0.35 0.0 0 1 227.32 501.58
  L 227.32 462.37
  A 0.35 0.35 0.0 0 1 227.67 462.02
  L 233.28 462.02
  A 0.35 0.35 0.0 0 1 233.63 462.37
  L 233.63 496.28
  A 0.35 0.35 0.0 0 0 233.98 496.63
  L 264.51 496.63
  A 0.35 0.35 0.0 0 1 264.86 496.98
  Z"
/>
<path fill="#fbfffe" d="
  M 366.57 481.39
  Q 366.64 481.39 366.71 481.37
  Q 366.77 481.35 366.82 481.29
  Q 374.76 472.35 383.63 462.24
  Q 383.80 462.04 384.06 462.04
  L 391.72 462.04
  A 0.09 0.08 -69.1 0 1 391.78 462.18
  L 370.03 486.31
  Q 369.69 486.69 369.69 487.21
  L 369.69 501.38
  Q 369.69 501.85 369.22 501.89
  Q 368.68 501.94 366.55 501.94
  Q 364.42 501.94 363.88 501.89
  Q 363.41 501.84 363.41 501.37
  L 363.44 487.20
  Q 363.44 486.68 363.10 486.30
  L 341.39 462.14
  A 0.09 0.08 69.2 0 1 341.45 462.00
  L 349.11 462.01
  Q 349.37 462.01 349.54 462.21
  Q 358.40 472.34 366.32 481.29
  Q 366.37 481.35 366.43 481.37
  Q 366.50 481.39 366.57 481.39
  Z"
/>
<path fill="#fbfffe" d="
  M 477.12 496.25
  A 0.38 0.38 0.0 0 0 477.50 496.63
  L 508.01 496.63
  Q 508.38 496.63 508.38 497.00
  L 508.38 501.61
  A 0.33 0.33 0.0 0 1 508.05 501.94
  L 471.05 501.93
  A 0.23 0.23 0.0 0 1 470.82 501.70
  L 470.82 462.20
  Q 470.82 462.00 471.02 462.00
  L 476.80 462.00
  Q 477.13 462.00 477.13 462.33
  L 477.12 496.25
  Z"
/>
<path fill="#fbfffe" d="
  M 531.17 495.99
  Q 531.17 496.62 531.82 496.62
  L 564.74 496.63
  Q 565.00 496.63 565.00 496.89
  L 564.99 501.71
  Q 564.99 501.93 564.78 501.93
  L 525.30 501.92
  Q 524.80 501.92 524.80 501.43
  L 524.81 462.53
  Q 524.81 462.00 525.34 462.00
  L 564.64 462.02
  Q 564.99 462.02 564.99 462.38
  L 564.99 466.87
  Q 564.99 467.20 564.66 467.20
  L 531.69 467.18
  Q 531.18 467.18 531.18 467.67
  L 531.18 478.07
  Q 531.18 478.57 531.69 478.57
  L 558.85 478.57
  Q 559.30 478.57 559.30 478.97
  L 559.28 483.49
  Q 559.28 483.87 558.95 483.87
  L 531.61 483.88
  Q 531.18 483.88 531.18 484.31
  L 531.17 495.99
  Z"
/>
<path fill="#fbfffe" d="
  M 236.17 546.00
  C 234.51 551.23 244.93 554.30 248.68 555.03
  C 255.55 556.37 265.50 558.14 270.02 562.55
  C 273.40 565.83 272.71 571.07 269.09 573.84
  C 264.61 577.27 257.82 578.19 252.27 578.40
  Q 241.03 578.84 230.29 576.36
  Q 230.02 576.29 230.02 576.02
  L 230.02 572.23
  A 0.18 0.18 0.0 0 1 230.25 572.06
  Q 240.95 575.22 251.76 574.73
  C 256.11 574.53 261.26 573.76 264.03 570.60
  C 266.21 568.12 264.55 564.98 262.17 563.47
  C 257.06 560.25 249.98 559.53 242.94 557.83
  C 237.52 556.52 230.36 554.09 229.94 547.55
  C 229.34 538.24 242.39 536.87 249.00 536.57
  Q 257.38 536.20 268.28 538.35
  Q 268.55 538.41 268.55 538.69
  L 268.55 542.51
  Q 268.55 542.61 268.46 542.58
  Q 256.03 539.01 244.51 540.78
  C 241.28 541.28 237.21 542.74 236.17 546.00
  Z"
/>
<path fill="#fbfffe" d="
  M 294.21 561.54
  A 0.70 0.70 0.0 0 0 293.52 562.24
  L 293.52 577.36
  Q 293.52 577.54 293.34 577.54
  L 286.59 577.54
  Q 286.49 577.54 286.49 577.45
  L 286.49 537.84
  Q 286.49 537.42 286.92 537.43
  Q 295.50 537.56 306.01 537.49
  C 312.07 537.45 319.17 538.16 324.65 541.41
  C 330.62 544.96 330.99 553.27 325.14 557.17
  C 316.58 562.89 302.54 561.45 294.21 561.54
  Z
  M 293.51 542.39
  L 293.49 556.57
  A 1.43 1.43 0.0 0 0 294.92 558.01
  L 308.34 558.03
  A 13.91 8.08 0.1 0 0 322.26 549.98
  L 322.26 549.10
  A 13.91 8.08 0.1 0 0 308.36 540.99
  L 294.94 540.97
  A 1.43 1.43 0.0 0 0 293.51 542.39
  Z"
/>
<path fill="#fbfffe" d="
  M 374.61 561.95
  L 389.99 577.33
  A 0.11 0.11 0.0 0 1 389.91 577.51
  L 382.71 577.51
  Q 382.43 577.51 382.23 577.30
  Q 375.15 569.65 368.82 563.18
  Q 367.16 561.49 365.51 561.49
  Q 361.41 561.47 352.43 561.53
  Q 351.51 561.53 351.51 562.46
  L 351.51 577.32
  Q 351.51 577.53 351.30 577.53
  L 344.70 577.53
  Q 344.50 577.53 344.50 577.33
  L 344.50 538.54
  Q 344.50 538.07 344.97 538.06
  Q 362.77 537.97 369.04 538.07
  C 376.85 538.20 391.06 540.86 388.96 551.78
  C 388.04 556.62 381.58 559.32 377.30 560.09
  C 376.29 560.27 375.51 560.67 374.71 561.14
  Q 374.14 561.48 374.61 561.95
  Z
  M 351.57 542.47
  L 351.45 556.82
  A 1.31 1.31 0.0 0 0 352.75 558.15
  L 367.32 558.27
  A 15.04 8.33 0.5 0 0 382.43 550.07
  L 382.43 549.75
  A 15.04 8.33 0.5 0 0 367.46 541.29
  L 352.89 541.17
  A 1.31 1.31 0.0 0 0 351.57 542.47
  Z"
/>
<path fill="#000000" d="
  M 293.51 542.39
  A 1.43 1.43 0.0 0 1 294.94 540.97
  L 308.36 540.99
  A 13.91 8.08 0.1 0 1 322.26 549.10
  L 322.26 549.98
  A 13.91 8.08 0.1 0 1 308.34 558.03
  L 294.92 558.01
  A 1.43 1.43 0.0 0 1 293.49 556.57
  L 293.51 542.39
  Z"
/>
<path fill="#000000" d="
  M 351.57 542.47
  A 1.31 1.31 0.0 0 1 352.89 541.17
  L 367.46 541.29
  A 15.04 8.33 0.5 0 1 382.43 549.75
  L 382.43 550.07
  A 15.04 8.33 0.5 0 1 367.32 558.27
  L 352.75 558.15
  A 1.31 1.31 0.0 0 1 351.45 556.82
  L 351.57 542.47
  Z"
/>
</svg>
